<?xml version="1.0" standalone="no"?>
<!DOCTYPE svg PUBLIC "-//W3C//DTD SVG 20010904//EN"
 "http://www.w3.org/TR/2001/REC-SVG-20010904/DTD/svg10.dtd">
<svg version="1.0" xmlns="http://www.w3.org/2000/svg"
 width="598.000000pt" height="598.000000pt" viewBox="0 0 598.000000 598.000000"
 preserveAspectRatio="xMidYMid meet">
<metadata>
Created by potrace 1.11, written by Peter Selinger 2001-2013
</metadata>
<g transform="translate(0.000000,598.000000) scale(0.100000,-0.100000)"
fill="#000000" stroke="none">
<path d="M5067 5883 c-103 -21 -173 -59 -247 -133 -111 -111 -153 -231 -113
-321 29 -65 65 -103 156 -162 101 -66 174 -97 204 -86 30 11 55 62 47 96 -14
56 -57 127 -109 179 -60 59 -64 81 -19 119 60 51 194 66 268 30 16 -8 35 -15
41 -15 24 0 121 -107 152 -166 42 -81 60 -155 58 -239 -1 -71 -21 -155 -37
-155 -4 0 -8 -5 -8 -10 0 -13 -46 -85 -80 -124 -127 -149 -217 -172 -405 -101
-55 20 -104 41 -110 45 -10 8 -66 24 -120 35 -172 34 -612 24 -820 -19 -11 -2
-40 -7 -65 -10 -73 -10 -92 -14 -230 -49 -52 -13 -135 -37 -185 -51 -49 -15
-99 -29 -110 -32 -24 -4 -191 -60 -220 -74 -101 -45 -183 -53 -365 -35 -36 3
-139 8 -230 11 -91 2 -196 6 -235 8 -38 2 -85 4 -103 5 -27 1 -44 12 -89 59
-31 31 -67 74 -80 95 -22 35 -23 43 -14 89 6 27 16 59 22 70 21 39 2 103 -46
152 -73 76 -159 110 -302 120 -90 6 -136 26 -216 92 -35 30 -96 62 -139 73
-45 13 -213 10 -293 -4 -44 -8 -129 -36 -140 -46 -5 -5 -17 -9 -27 -9 -10 0
-18 -4 -18 -10 0 -5 -5 -10 -11 -10 -31 0 -224 -143 -299 -221 -74 -77 -72
-72 -76 -184 -1 -44 -7 -92 -13 -107 -6 -16 -8 -28 -5 -28 13 0 -30 -61 -72
-100 -299 -283 -319 -327 -205 -440 101 -100 193 -139 338 -142 153 -4 158
-36 18 -110 -75 -40 -80 -45 -83 -79 -4 -49 15 -62 86 -60 70 2 89 5 126 20
29 12 138 85 166 111 9 8 33 29 54 45 21 17 45 36 52 43 7 7 17 13 21 13 4 0
17 2 29 5 26 7 113 -28 169 -66 29 -20 55 -51 79 -95 31 -56 36 -75 36 -129 0
-56 4 -69 38 -122 21 -32 45 -66 53 -74 8 -8 32 -43 54 -78 41 -67 41 -68 50
-257 5 -124 11 -191 20 -235 3 -14 7 -34 9 -46 10 -50 78 -249 89 -261 4 -3 7
-16 7 -28 0 -11 4 -25 9 -30 29 -33 44 -124 45 -275 l1 -115 -59 -165 c-32
-91 -65 -182 -74 -203 -8 -21 -15 -44 -15 -52 0 -8 -4 -15 -9 -15 -4 0 -7 -3
-6 -7 0 -5 -3 -17 -7 -28 -4 -11 -16 -41 -26 -66 -10 -26 -66 -143 -125 -260
-59 -118 -119 -239 -133 -269 -14 -30 -28 -57 -32 -60 -12 -11 -70 -182 -95
-280 -27 -110 -59 -196 -81 -218 -7 -8 -11 -18 -8 -23 4 -5 2 -9 -4 -9 -6 0
-17 -12 -25 -27 -8 -16 -42 -55 -76 -88 -174 -168 -200 -202 -200 -257 0 -37
35 -84 86 -114 53 -31 98 -37 134 -18 29 15 101 84 145 138 17 21 39 48 51 61
33 36 65 92 70 122 2 15 6 42 9 59 3 18 17 49 31 70 14 20 44 85 66 143 43
109 56 131 81 131 8 0 25 8 37 18 19 15 23 29 25 88 2 80 41 178 108 274 21
30 55 80 74 110 53 81 81 123 166 247 42 61 77 114 77 117 0 3 25 43 55 90 30
46 55 89 55 95 0 6 5 11 10 11 6 0 10 6 10 13 0 18 94 167 152 244 25 32 57
80 73 108 26 47 26 52 15 100 -14 62 -16 108 -6 160 20 102 50 92 214 -73 97
-97 222 -272 222 -310 0 -12 4 -23 9 -26 4 -3 11 -18 14 -33 3 -16 16 -73 27
-128 12 -55 23 -115 26 -134 2 -18 6 -36 8 -40 3 -3 7 -27 11 -51 3 -25 8 -63
12 -85 6 -44 8 -61 17 -155 13 -135 17 -209 21 -345 3 -77 8 -171 11 -210 14
-140 6 -338 -15 -411 -17 -59 -44 -100 -84 -131 -95 -72 -160 -154 -170 -213
-8 -41 32 -79 89 -85 62 -8 58 -8 64 -6 3 1 52 4 110 6 175 8 195 14 214 60
13 31 18 67 30 250 6 87 15 158 27 210 5 22 12 51 15 65 2 14 16 50 30 79 22
48 25 63 19 119 -4 36 -10 74 -14 86 -5 11 -12 53 -16 91 -4 39 -9 84 -11 100
-9 62 -19 296 -29 655 -10 359 -11 356 18 475 14 61 27 124 28 140 3 29 -16
100 -31 120 -11 15 5 51 32 69 93 66 185 132 194 141 6 5 26 21 44 35 47 35
135 129 221 235 40 50 87 102 103 117 17 15 39 34 48 42 19 17 142 75 167 79
9 1 22 6 29 10 6 5 12 6 12 3 0 -2 24 2 53 10 76 20 124 18 160 -8 41 -29 57
-44 57 -56 0 -24 43 -62 70 -62 36 0 60 29 90 110 27 71 50 89 86 65 29 -19
30 -35 6 -123 -19 -67 -19 -81 -8 -157 8 -56 39 -148 146 -435 27 -70 74 -215
84 -255 1 -5 10 -27 19 -49 9 -21 17 -41 17 -44 0 -11 85 -177 92 -180 4 -2 8
-8 8 -14 0 -6 17 -38 38 -72 35 -56 95 -174 113 -221 14 -36 18 -59 24 -125 4
-36 8 -72 11 -81 3 -9 7 -32 9 -50 3 -19 7 -45 10 -59 3 -14 8 -41 11 -60 3
-19 8 -46 11 -60 9 -41 10 -372 1 -410 -5 -19 -21 -58 -35 -87 -23 -44 -35
-55 -77 -74 -71 -30 -81 -41 -101 -114 -25 -94 -16 -116 55 -132 18 -4 179 -4
200 0 69 14 90 43 106 142 14 88 20 117 24 123 3 3 5 11 14 62 5 25 10 52 11
60 2 8 13 53 25 100 12 47 23 96 25 110 1 14 5 59 9 101 4 42 9 87 11 100 2
13 6 47 10 74 3 28 12 78 20 111 8 34 16 74 19 88 3 14 7 29 9 33 9 14 -19 96
-63 188 -23 50 -53 119 -67 155 -13 36 -28 74 -32 85 -9 19 -23 54 -26 65 -1
3 -9 29 -18 59 -19 61 -21 81 -9 81 14 0 57 -42 82 -80 23 -34 127 -166 162
-204 19 -21 105 -187 128 -246 8 -19 17 -37 20 -40 10 -8 78 -220 85 -265 14
-87 23 -251 15 -275 -1 -3 -3 -25 -5 -49 -3 -25 -7 -58 -10 -75 -8 -50 -15
-89 -20 -116 -3 -14 -8 -38 -11 -55 -3 -16 -10 -50 -15 -75 -27 -114 -29 -136
-18 -174 5 -17 12 -53 15 -81 7 -60 19 -74 64 -78 54 -4 87 17 128 84 12 19
30 43 41 53 11 10 32 50 47 90 23 59 28 87 28 169 1 53 -1 97 -4 97 -15 0 5
722 25 885 3 28 -9 50 -75 130 -75 91 -141 194 -184 286 -41 88 -46 103 -59
152 -2 6 -10 32 -17 57 -7 25 -14 54 -16 65 -2 11 -6 31 -9 45 -25 99 -25 285
0 410 3 14 7 45 11 70 3 25 10 70 15 100 6 30 12 64 13 75 4 26 25 133 32 165
3 14 7 41 9 60 3 19 8 51 11 70 3 19 7 49 9 65 2 17 6 55 10 85 18 139 7 366
-20 410 -4 6 -8 21 -11 35 -2 13 -9 37 -16 52 -6 16 -12 31 -12 35 -1 4 -23
38 -51 74 -83 110 -114 164 -107 184 4 10 37 51 74 91 153 169 252 320 292
449 33 102 40 152 40 265 -1 86 -3 101 -19 170 -23 93 -90 200 -185 293 -82
82 -155 127 -265 164 -99 33 -177 40 -268 21z m-3184 -2915 c27 -18 135 -108
173 -143 24 -23 35 -55 24 -74 -5 -11 -15 -21 -22 -24 -20 -7 -77 20 -133 62
-27 21 -64 45 -81 54 -28 15 -52 54 -49 82 3 28 18 54 33 58 9 3 19 5 20 6 2
0 18 -9 35 -21z"/>
</g>
</svg>
